<svg width="940" height="120" viewBox="0 0 940 120" fill="none" xmlns="http://www.w3.org/2000/svg">
<g clip-path="url(#clip0_3890_27267)">
<rect width="939.5" height="120" rx="10" fill="#EEF1F7"/>
<circle cx="688.106" cy="83.3516" r="19.043" fill="#00B163"/>
<path d="M720.845 43.6166C771.927 44.9615 809.564 50.3504 844.516 94.7871C870.919 128.36 918.039 123.496 939.5 119.109V-2.22217H659.5C673.296 19.7148 694.129 42.9108 720.845 43.6166Z" fill="#00B163"/>
<g opacity="0.1">
<path d="M575.241 73.8494C575.141 73.9147 575.044 73.9899 574.946 74.0651C574.542 74.3572 574.234 74.763 574.062 75.2306C573.889 75.6982 573.859 76.2066 573.976 76.691L593.397 158.427C593.51 158.911 593.764 159.351 594.127 159.691C594.49 160.031 594.945 160.257 595.435 160.339L595.799 160.395L575.241 73.8494Z" fill="#001931"/>
<path d="M581.011 70.3585C580.521 70.6091 580.13 71.0175 579.901 71.5179C579.672 72.0183 579.618 72.5813 579.748 73.116L600.16 159.036C600.289 159.57 600.592 160.046 601.022 160.389C601.452 160.731 601.984 160.921 602.533 160.928L581.011 70.3585Z" fill="#001931"/>
<path d="M586.964 67.7621C586.368 67.9695 585.77 68.1929 585.185 68.424L607.121 160.746C607.752 160.687 608.38 160.619 609.016 160.538L586.964 67.7621Z" fill="#001931"/>
<path d="M564.561 84.3393C564.317 84.7315 564.014 85.0956 563.742 85.4788C563.541 85.7662 563.402 86.0925 563.335 86.4367C563.267 86.7809 563.272 87.1354 563.349 87.4775L579.048 153.545C579.129 153.886 579.282 154.206 579.494 154.485C579.707 154.763 579.976 154.994 580.284 155.163L581.536 155.813L564.561 84.3393Z" fill="#001931"/>
<path d="M555.986 103.657C555.683 105.206 555.46 106.768 555.318 108.34C555.282 108.632 555.296 108.928 555.36 109.215L562.147 137.782C562.216 138.067 562.336 138.337 562.5 138.58C563.34 139.925 564.25 141.225 565.226 142.474L555.986 103.657Z" fill="#001931"/>
<path d="M569.743 78.4184C569.541 78.6071 569.351 78.8034 569.155 78.9959C568.857 79.3081 568.643 79.6903 568.533 80.1072C568.422 80.5241 568.418 80.9621 568.522 81.3807L586.433 156.732C586.53 157.15 586.732 157.537 587.02 157.856C587.308 158.174 587.672 158.414 588.078 158.553L588.864 158.804L569.743 78.4184Z" fill="#001931"/>
<path d="M559.844 92.1213C559.507 92.8129 559.195 93.5196 558.9 94.2279C558.693 94.7228 558.65 95.2705 558.777 95.7914L571.22 148.187C571.34 148.712 571.622 149.185 572.027 149.539C572.61 150.036 573.206 150.526 573.813 150.997L559.844 92.1213Z" fill="#001931"/>
<path d="M599.508 65.1078C598.875 65.1562 598.24 65.2207 597.612 65.289L619.63 157.942C620.224 157.725 620.815 157.498 621.402 157.251L599.508 65.1078Z" fill="#001931"/>
<path d="M635.569 78.2844C635.452 77.7711 635.181 77.3059 634.792 76.952C634.193 76.4267 633.582 75.9198 632.958 75.4214L646.628 132.947C646.961 132.22 647.279 131.491 647.574 130.756C647.766 130.268 647.803 129.733 647.677 129.223L635.569 78.2844Z" fill="#001931"/>
<path d="M644.843 89.5957C644.783 89.347 644.689 89.1081 644.562 88.886C643.685 87.3776 642.727 85.9175 641.693 84.5117L650.344 120.915C650.633 119.192 650.831 117.455 650.938 115.711C650.95 115.456 650.925 115.2 650.865 114.952L644.843 89.5957Z" fill="#001931"/>
<path d="M627.647 72.6806C627.567 72.3454 627.418 72.0303 627.211 71.7552C627.003 71.4801 626.741 71.2508 626.441 71.0817C626.024 70.8229 625.584 70.6168 625.166 70.4L641.944 141.003C642.199 140.593 642.507 140.206 642.773 139.819C642.966 139.534 643.1 139.212 643.164 138.874C643.228 138.535 643.222 138.187 643.147 137.851L627.647 72.6806Z" fill="#001931"/>
<path d="M613.309 67.5769C613.197 67.0992 612.948 66.6645 612.593 66.326C612.238 65.9876 611.792 65.7601 611.309 65.6713L610.901 65.6043L631.358 151.697L631.692 151.446C632.083 151.15 632.38 150.746 632.544 150.284C632.709 149.822 632.736 149.322 632.621 148.846L613.309 67.5769Z" fill="#001931"/>
<path d="M606.516 66.8811C606.389 66.3502 606.089 65.8765 605.665 65.534C605.24 65.1916 604.713 64.9998 604.168 64.9886L625.621 155.286C626.115 155.023 626.508 154.604 626.739 154.094C626.97 153.584 627.025 153.012 626.897 152.468L606.516 66.8811Z" fill="#001931"/>
<path d="M615.309 159.309L593.142 66.0201C592.524 66.1541 591.912 66.2919 591.298 66.4458L613.475 159.759C614.088 159.621 614.697 159.473 615.309 159.309Z" fill="#001931"/>
<path d="M620.296 69.3699C620.199 68.9556 619.999 68.5724 619.716 68.2553C619.432 67.9381 619.074 67.697 618.673 67.5542L617.856 67.2842L636.795 147.021C636.998 146.816 637.202 146.612 637.396 146.409C637.688 146.099 637.898 145.72 638.006 145.308C638.114 144.896 638.117 144.463 638.013 144.049L620.296 69.3699Z" fill="#001931"/>
</g>
<path opacity="0.05" d="M226.64 103.254C166.494 115.564 120.797 118.787 65.9826 69.3477C24.5415 32.0015 -28.9911 51.4671 -52.7057 63.2242L-14.6213 224.554L312.752 147.273C289.736 121.911 258.098 96.8182 226.64 103.254Z" fill="#001931"/>
</g>
<defs>
<clipPath id="clip0_3890_27267">
<rect width="939.5" height="120" rx="10" fill="white"/>
</clipPath>
</defs>
</svg>
